<svg xmlns="http://www.w3.org/2000/svg" width="159" height="43" fill="none"><g clip-path="url(#a)"><path fill="#099" d="M51.724 20.962v7.756h-4.208V8.37h6.35c1.378 0 2.602.153 3.597.46.995.307 1.837.691 2.449 1.229.612.537 1.147 1.152 1.377 1.843.306.69.46 1.536.46 2.38 0 .691-.077 1.306-.307 1.92a4.067 4.067 0 0 1-.842 1.612 7.445 7.445 0 0 1-1.377 1.306 6.868 6.868 0 0 1-1.836.921c.306.154.535.307.765.538.23.23.459.46.612.767l4.744 7.295h-3.75c-.688 0-1.224-.307-1.53-.845l-3.825-6.22a1.789 1.789 0 0 0-.536-.537c-.153-.077-.46-.153-.842-.153h-1.3v.076Zm0-2.994h2.143c.689 0 1.3-.077 1.76-.23.459-.154.918-.384 1.224-.692.306-.307.536-.69.689-1.075.153-.383.23-.844.23-1.382 0-.998-.307-1.689-.995-2.226-.613-.538-1.607-.768-2.908-.768h-2.142v6.373Zm22.42 10.75c-.383 0-.613-.077-.842-.154-.23-.076-.383-.307-.46-.614l-.305-.921c-.383.307-.689.614-1.071.844a4.9 4.9 0 0 1-1.072.614c-.382.154-.765.308-1.147.384a6.837 6.837 0 0 1-1.378.154 6.5 6.5 0 0 1-1.76-.23c-.535-.154-.994-.384-1.377-.768a2.73 2.73 0 0 1-.841-1.229c-.23-.46-.306-1.075-.306-1.69 0-.537.152-1.074.382-1.612.306-.537.765-.998 1.377-1.458.689-.461 1.53-.768 2.602-1.076 1.071-.307 2.448-.46 4.132-.46v-.768c0-.922-.153-1.536-.536-1.997-.383-.46-.918-.614-1.683-.614a5.46 5.46 0 0 0-1.301.154c-.383.153-.689.23-.918.384-.23.153-.536.307-.765.384-.23.153-.536.153-.842.153-.306 0-.46-.077-.689-.23l-.459-.46-.688-1.23a8.184 8.184 0 0 1 2.83-1.689c.995-.384 2.143-.537 3.29-.537.843 0 1.608.153 2.296.384a5.449 5.449 0 0 1 1.684 1.152c.459.537.841 1.075 1.07 1.766a7.26 7.26 0 0 1 .383 2.303v9.06h-1.606Zm-5.05-2.38c.612 0 1.224-.077 1.683-.308.46-.23.918-.614 1.377-1.075V22.73c-.918 0-1.76.153-2.372.23-.612.154-1.147.307-1.453.46a1.6 1.6 0 0 0-.766.615 1.3 1.3 0 0 0-.23.768c0 .537.154.921.46 1.228a2.95 2.95 0 0 0 1.3.307Zm14.308 2.61c-.689 0-1.224-.077-1.76-.307-.535-.154-.918-.46-1.3-.845a2.82 2.82 0 0 1-.766-1.305 6.01 6.01 0 0 1-.23-1.69v-7.755h-1.3a.693.693 0 0 1-.536-.23c-.153-.154-.23-.307-.23-.614v-1.536l2.296-.384.765-3.762c.077-.384.383-.615.842-.615h1.99v4.377h3.749v2.688h-3.75v7.601c0 .384.077.691.306.922.23.23.46.384.842.384.153 0 .383 0 .46-.077.152-.077.229-.077.305-.154.077-.076.153-.076.23-.153.076-.077.153-.077.23-.077.076 0 .229 0 .305.077l.23.23 1.148 1.843c-.536.384-1.148.768-1.837.921-.535.308-1.224.461-1.989.461Zm11.554-14.896c.918 0 1.76.153 2.525.46.765.308 1.454.691 1.99 1.306a5.64 5.64 0 0 1 1.3 2.073c.306.845.459 1.766.459 2.764 0 .307 0 .538-.076.691 0 .154-.077.308-.153.461l-.23.23c-.076.077-.229.077-.459.077h-8.493c.153 1.382.535 2.38 1.147 2.995.613.614 1.53.921 2.526.921.535 0 .994-.077 1.377-.153.382-.154.689-.23.995-.384.306-.154.535-.307.765-.384.23-.154.459-.154.688-.154.306 0 .536.077.689.308l1.148 1.382c-.383.46-.842.844-1.378 1.151-.459.308-.994.538-1.53.768-.535.154-1.071.307-1.607.384-.535.077-1.07.077-1.53.077a8.754 8.754 0 0 1-2.831-.46c-.842-.308-1.607-.845-2.296-1.46-.612-.614-1.147-1.459-1.53-2.457-.382-.998-.535-2.073-.535-3.378 0-.999.153-1.92.459-2.765a7.095 7.095 0 0 1 1.377-2.303 7.644 7.644 0 0 1 2.219-1.536c.918-.46 1.913-.614 2.984-.614Zm.076 2.687c-.918 0-1.606.23-2.142.768-.536.538-.842 1.305-.995 2.227h6.045c0-.384-.076-.768-.153-1.152-.077-.384-.306-.691-.536-.998a2.09 2.09 0 0 0-.918-.691c-.382-.077-.765-.154-1.3-.154Z"/><path fill="gray" d="M114.391 20.886c.153.384.306.69.459 1.075.153-.384.306-.768.459-1.075a4.12 4.12 0 0 1 .536-.998l5.662-10.827c.077-.154.153-.307.23-.384.076-.077.229-.154.306-.23.076-.077.229-.077.382-.077h3.673v20.348h-3.673V15.357c0-.307 0-.614.077-.921l-5.815 11.057c-.307.614-.842.921-1.454.921h-.612c-.306 0-.613-.077-.842-.23a1.806 1.806 0 0 1-.612-.691l-5.815-11.057c0 .307.076.614.076.921v13.361h-3.673V8.37h3.673c.153 0 .23 0 .383.076.076.077.229.077.306.23.076.078.153.231.229.385l5.662 10.826c.077.308.23.615.383.999Zm32.596-2.381c0 1.46-.229 2.841-.765 4.07s-1.224 2.304-2.142 3.225a8.608 8.608 0 0 1-3.291 2.073c-1.3.538-2.678.768-4.208.768h-7.805V8.37h7.805c1.53 0 2.984.23 4.208.767 1.301.538 2.372 1.23 3.291 2.074.918.921 1.606 1.996 2.142 3.225.536 1.228.765 2.61.765 4.07Zm-4.285 0a10.65 10.65 0 0 0-.382-2.84c-.306-.845-.689-1.536-1.225-2.15-.535-.615-1.147-1.076-1.912-1.383-.766-.307-1.607-.46-2.526-.46h-3.596v13.744h3.596c.919 0 1.837-.154 2.526-.46a4.911 4.911 0 0 0 1.912-1.383c.536-.614.919-1.305 1.225-2.15a11.25 11.25 0 0 0 .382-2.918Zm15.303-1.305c-.076.154-.229.307-.306.307-.076.077-.229.077-.459.077-.153 0-.383-.077-.536-.154-.229-.076-.382-.23-.688-.307-.23-.077-.536-.23-.842-.307a4.502 4.502 0 0 0-1.071-.153c-.612 0-1.071.153-1.454.383s-.536.615-.536.999c0 .307.077.537.307.69.229.231.459.385.765.538.306.154.688.307 1.071.384.383.154.842.23 1.301.384.459.154.841.307 1.3.538.383.23.766.46 1.072.767.306.308.612.615.765 1.075.229.384.306.922.306 1.536 0 .691-.153 1.382-.383 1.92-.229.614-.612 1.075-1.147 1.536-.459.46-1.072.767-1.837.998a8.707 8.707 0 0 1-2.525.384c-.459 0-.995-.077-1.454-.154-.459-.077-.918-.23-1.377-.384-.459-.153-.842-.384-1.224-.537-.383-.23-.689-.461-.995-.691l.918-1.46a.928.928 0 0 1 .383-.383c.153-.077.382-.154.612-.154.23 0 .459.077.612.154.23.153.383.23.689.384.229.153.535.23.841.384.307.153.766.153 1.225.153.382 0 .688-.077.994-.153.306-.077.46-.23.689-.308.153-.153.306-.307.383-.46.076-.154.153-.384.153-.538 0-.307-.077-.614-.306-.768a2.747 2.747 0 0 0-.766-.537 4.02 4.02 0 0 0-1.147-.384c-.383-.154-.842-.23-1.301-.384a9.329 9.329 0 0 1-1.301-.537c-.382-.23-.765-.461-1.071-.768-.306-.308-.612-.691-.765-1.152-.23-.46-.306-.998-.306-1.69 0-.614.153-1.151.382-1.689.23-.537.612-.998 1.072-1.459a5.566 5.566 0 0 1 1.759-.998 7.686 7.686 0 0 1 2.372-.384c.995 0 1.99.154 2.831.538a5.607 5.607 0 0 1 2.066 1.305l-1.071 1.459ZM52.796 34.554a3.6 3.6 0 0 1-.23 1.305c-.153.384-.382.691-.612.998-.306.307-.612.46-.995.614-.382.154-.841.23-1.3.23h-2.372V31.33h2.372c.459 0 .918.076 1.3.23.383.153.689.384.995.614.306.307.46.614.612.998.153.461.23.922.23 1.383Zm-.842 0a4.52 4.52 0 0 0-.153-1.075c-.077-.308-.23-.538-.459-.768-.23-.23-.46-.384-.689-.461-.306-.077-.612-.154-.918-.154h-1.53v4.992h1.53c.306 0 .612-.077.918-.154.306-.077.536-.307.689-.46.23-.231.383-.461.46-.769.076-.384.152-.767.152-1.151Zm7.881 0c0 .46-.076.921-.23 1.305-.152.384-.382.768-.611.998-.306.307-.612.538-.995.691-.383.154-.842.23-1.3.23-.46 0-.919-.076-1.302-.23-.382-.153-.688-.384-.994-.69-.306-.308-.46-.615-.612-1a3.598 3.598 0 0 1-.23-1.304c0-.461.077-.922.23-1.306.153-.384.382-.768.612-.998.306-.307.612-.538.994-.691.383-.154.842-.23 1.301-.23.46 0 .918.076 1.301.23.383.153.689.384.995.691.306.307.459.614.612.998.153.384.23.845.23 1.306Zm-.841 0c0-.384-.077-.768-.153-1.075-.077-.308-.23-.538-.46-.768-.229-.23-.459-.384-.688-.461-.306-.077-.612-.154-.918-.154-.306 0-.612.077-.919.154-.306.154-.535.307-.688.46-.23.231-.383.461-.46.769a4.547 4.547 0 0 0-.152 1.075c0 .383.076.767.153 1.075.076.307.23.537.459.767.23.23.459.384.688.461.307.077.613.154.919.154.306 0 .688-.077.918-.154.306-.077.535-.307.689-.46.23-.23.382-.461.459-.768a4.58 4.58 0 0 0 .153-1.075Zm6.503 1.842c.077 0 .077 0 .153.077l.306.384c-.23.307-.612.538-.918.691-.382.154-.841.23-1.377.23-.46 0-.842-.076-1.224-.23a2.09 2.09 0 0 1-.919-.69c-.23-.308-.459-.615-.612-1a3.598 3.598 0 0 1-.23-1.304c0-.461.077-.922.23-1.306.153-.384.383-.768.689-.998.306-.307.612-.538.995-.691.382-.154.841-.23 1.3-.23.46 0 .842.076 1.225.23.306.153.612.307.918.614l-.306.384-.077.077h-.153c-.076 0-.076 0-.153-.077-.076 0-.076-.077-.153-.077-.076-.076-.153-.076-.23-.153-.076-.077-.152-.077-.305-.154-.077-.077-.23-.077-.383-.077s-.306-.076-.536-.076c-.306 0-.612.076-.918.153a2.748 2.748 0 0 0-.765.538c-.23.23-.383.46-.46.768a4.547 4.547 0 0 0-.152 1.075c0 .383.076.767.153 1.075.077.307.306.537.459.767.23.23.46.384.689.461.306.077.535.154.841.154h.536c.153 0 .306-.077.383-.077.153-.077.23-.077.382-.154.077-.076.23-.153.306-.23.23-.077.23-.154.306-.154Zm5.892-5.067v.69h-2.066v5.683h-.842V32.02h-2.066v-.691h4.974Zm6.351 3.225c0 .46-.076.921-.23 1.305-.153.384-.382.768-.612.998-.306.307-.612.538-.994.691-.383.154-.842.23-1.301.23-.46 0-.918-.076-1.3-.23-.383-.153-.69-.384-.995-.69-.307-.308-.46-.615-.613-1a3.596 3.596 0 0 1-.23-1.304c0-.461.077-.922.23-1.306.153-.384.383-.768.613-.998.306-.307.612-.538.994-.691.383-.154.842-.23 1.301-.23.46 0 .918.076 1.3.23.383.153.69.384.995.691.306.307.46.614.613.998.153.384.23.845.23 1.306Zm-.918 0c0-.384-.077-.768-.153-1.075-.077-.308-.23-.538-.46-.768-.229-.23-.458-.384-.688-.461-.306-.077-.612-.154-.918-.154-.306 0-.612.077-.918.154-.306.154-.536.307-.689.46-.23.231-.382.461-.459.769a4.547 4.547 0 0 0-.153 1.075c0 .383.076.767.153 1.075.077.307.23.537.46.767.229.23.458.384.688.461.306.077.612.154.918.154.306 0 .689-.077.918-.154.306-.077.536-.307.689-.46.23-.23.382-.461.459-.768.153-.308.153-.691.153-1.075Zm2.984.537v2.688h-.842v-6.374h1.76a4.5 4.5 0 0 1 1.071.154c.306.077.536.23.69.384.152.153.305.307.458.537.077.23.153.461.153.768 0 .23 0 .46-.076.614-.077.23-.153.384-.306.538-.153.154-.306.307-.46.384-.229.077-.382.23-.688.23.076.077.23.154.306.307l1.836 2.534h-.765a.584.584 0 0 1-.382-.153l-1.684-2.304c-.076-.077-.076-.153-.153-.153-.076 0-.153-.077-.23-.077h-.688v-.077Zm0-.614h.918c.23 0 .46 0 .689-.077.153-.077.382-.154.459-.23.153-.077.23-.23.306-.384.076-.154.076-.308.076-.538 0-.384-.153-.69-.382-.844-.23-.23-.612-.308-1.148-.308h-.918v2.38Zm8.034-2.15c0 .077-.077.077-.077.077h-.153c-.076 0-.076 0-.153-.077-.076-.077-.153-.077-.23-.154a.583.583 0 0 0-.382-.153c-.153-.077-.306-.077-.535-.077-.23 0-.383 0-.536.077-.153.076-.306.153-.383.23-.076.077-.153.23-.23.307-.076.154-.076.23-.076.384s.077.307.153.46c.077.154.23.231.383.308l.46.23c.152.077.382.154.535.154.153.077.382.153.535.23.153.077.383.154.46.307.152.154.229.307.382.461.077.154.153.384.153.691 0 .307-.076.538-.153.768-.076.23-.23.46-.383.614-.153.154-.382.307-.688.461-.23.077-.536.154-.918.154a3.06 3.06 0 0 1-1.148-.23 3.397 3.397 0 0 1-.842-.615l.23-.384.076-.077h.077c.076 0 .153 0 .23.077.076.077.152.154.305.23.153.077.23.154.46.23.153.078.382.078.612.078.23 0 .382 0 .535-.077.153-.077.306-.154.383-.23.076-.077.23-.231.23-.385.076-.153.076-.307.076-.46 0-.154-.077-.384-.153-.461-.077-.154-.23-.23-.306-.307l-.46-.23c-.152-.077-.382-.154-.535-.154-.153-.077-.383-.154-.536-.23a1.6 1.6 0 0 1-.459-.308 1.607 1.607 0 0 1-.306-.46 1.838 1.838 0 0 1-.153-.691c0-.23.077-.461.153-.691.077-.23.23-.384.383-.538.153-.154.382-.307.612-.384.23-.077.536-.153.842-.153.382 0 .688.076.994.153.306.077.536.307.766.46l-.23.385Zm5.586 2.841v2.534h-.842v-2.534l-2.295-3.84h.765c.076 0 .153 0 .153.077.076.077.076.077.076.154l1.454 2.457c.077.077.077.23.153.307.077.077.077.154.077.307 0-.076.076-.153.076-.307.077-.077.077-.153.153-.307l1.454-2.457c0-.077.076-.077.076-.154.077-.076.077-.076.153-.076h.766l-2.22 3.839Zm8.646-.614a3.6 3.6 0 0 1-.229 1.305c-.153.384-.383.768-.612.998-.307.307-.613.538-.995.691-.383.154-.842.23-1.301.23-.46 0-.918-.076-1.3-.23-.383-.153-.69-.384-.996-.69-.305-.308-.459-.615-.612-1a3.598 3.598 0 0 1-.23-1.304c0-.461.077-.922.23-1.306.153-.384.383-.768.612-.998.307-.307.613-.538.995-.691.383-.154.842-.23 1.301-.23.46 0 .918.076 1.301.23.382.153.688.384.995.691.306.307.459.614.612.998.153.384.229.845.229 1.306Zm-.918 0c0-.384-.077-.768-.153-1.075-.077-.308-.23-.538-.459-.768-.23-.23-.459-.384-.689-.461-.306-.077-.612-.154-.918-.154-.306 0-.612.077-.918.154-.306.154-.536.307-.689.46-.23.231-.382.461-.459.769a4.547 4.547 0 0 0-.153 1.075c0 .383.077.767.153 1.075.077.307.23.537.46.767.229.23.458.384.688.461.306.077.612.154.918.154.306 0 .689-.077.918-.154.306-.077.536-.307.689-.46.229-.23.382-.461.459-.768a4.58 4.58 0 0 0 .153-1.075Zm4.514 2.456c.23 0 .46-.076.689-.153.23-.077.383-.23.536-.384.153-.153.229-.384.306-.537.076-.23.076-.461.076-.768v-3.84h.842v3.84c0 .384-.077.69-.153.998-.153.307-.306.614-.536.845a2.74 2.74 0 0 1-.765.537c-.306.154-.689.23-1.071.23-.383 0-.765-.076-1.071-.23-.306-.153-.612-.307-.765-.537-.23-.23-.383-.538-.536-.845-.153-.307-.153-.691-.153-.998v-3.84h.842v3.84c0 .23 0 .537.076.768.077.23.153.384.306.537.153.154.306.307.536.384.306.154.612.154.841.154Zm10.177-.614c.076 0 .076 0 .153.077l.306.384c-.23.307-.612.538-.918.691-.383.154-.842.23-1.377.23-.46 0-.842-.076-1.225-.23a2.095 2.095 0 0 1-.918-.69c-.229-.308-.459-.615-.612-1a3.598 3.598 0 0 1-.23-1.304c0-.461.077-.922.23-1.306.153-.384.383-.768.689-.998.306-.307.612-.538.994-.691.383-.154.842-.23 1.301-.23.459 0 .842.076 1.224.23.306.153.612.307.919.614l-.307.384-.076.077h-.153s-.077 0-.153-.077c-.077 0-.077-.077-.153-.077-.077-.076-.153-.076-.23-.153-.076-.077-.153-.077-.306-.154-.076-.077-.229-.077-.382-.077s-.306-.076-.536-.076c-.306 0-.612.076-.918.153a2.74 2.74 0 0 0-.765.538c-.23.23-.383.46-.459.768a4.521 4.521 0 0 0-.153 1.075c0 .383.076.767.153 1.075.076.307.306.537.459.767.229.23.459.384.688.461.306.077.536.154.842.154h.536c.153 0 .306-.077.382-.077.153-.077.23-.077.383-.154.076-.076.229-.153.306-.23.153-.077.229-.154.306-.154Zm6.733 1.306h-.688c-.077 0-.153 0-.153-.077-.077-.077-.077-.077-.077-.154l-.612-1.535h-2.831l-.612 1.535c0 .077-.077.077-.077.154-.076.077-.076.077-.153.077h-.688l2.525-6.373h.841l2.525 6.373Zm-4.132-2.304h2.372l-.994-2.61c-.077-.154-.153-.384-.23-.615 0 .154-.076.23-.076.307 0 .077-.077.154-.077.23l-.995 2.688Zm5.586-3.993.153.154 3.673 4.837v-4.99h.765v6.373h-.612c-.077 0-.077-.077-.153-.154l-3.673-4.76v4.99h-.765v-6.373h.459c0-.154.077-.077.153-.077Zm12.089-.076v.69h-2.065v5.683h-.842V32.02h-2.066v-.691h4.973Zm1.837 3.762v2.688h-.842v-6.374h1.76c.383 0 .765.077 1.071.154.306.077.536.23.689.384.153.153.306.307.459.537.077.23.153.461.153.768 0 .23 0 .46-.076.614-.077.23-.153.384-.306.538-.154.154-.307.307-.46.384-.229.077-.382.23-.688.23.076.077.229.154.306.307l1.836 2.534h-.765a.586.586 0 0 1-.383-.153l-1.683-2.304c-.076-.077-.076-.153-.153-.153-.076 0-.153-.077-.229-.077h-.689v-.077Zm0-.614h.918c.23 0 .459 0 .689-.077.153-.077.382-.154.459-.23.153-.077.229-.23.306-.384.076-.154.076-.308.076-.538 0-.384-.153-.69-.382-.844-.23-.23-.612-.308-1.148-.308h-.918v2.38Zm6.963 2.533c.229 0 .459-.076.689-.153.229-.077.382-.23.535-.384.153-.153.23-.384.306-.537.077-.23.077-.461.077-.768v-3.84h.841v3.84c0 .384-.076.69-.153.998-.153.307-.306.614-.535.845-.23.23-.459.384-.765.537-.306.154-.689.23-1.072.23-.382 0-.765-.076-1.071-.23-.306-.153-.612-.307-.765-.537-.23-.23-.383-.538-.536-.845-.153-.307-.153-.691-.153-.998v-3.84h.842v3.84c0 .23 0 .537.077.768.076.23.153.384.306.537.153.154.306.307.535.384.383.154.612.154.842.154Zm7.269-4.683c0 .077-.076.077-.076.077h-.154c-.076 0-.076 0-.153-.077-.076-.077-.153-.077-.229-.154a.586.586 0 0 0-.383-.153c-.153-.077-.306-.077-.535-.077-.23 0-.383 0-.536.077-.153.076-.306.153-.382.23-.077.077-.153.23-.23.307-.077.154-.077.23-.077.384s.077.307.154.46c.076.154.229.231.382.308l.459.23c.153.077.383.154.536.154.153.077.382.153.535.23.153.077.383.154.459.307.154.154.23.307.383.461.077.154.153.384.153.691 0 .307-.076.538-.153.768a1.66 1.66 0 0 1-.383.614c-.153.154-.382.307-.688.461-.23.077-.536.154-.918.154-.383 0-.765-.077-1.148-.23a3.409 3.409 0 0 1-.842-.615l.23-.384.076-.077h.077c.076 0 .153 0 .229.077.077.077.153.154.306.23.153.077.23.154.46.23.153.078.382.078.612.078.229 0 .382 0 .535-.077.153-.077.306-.154.383-.23.076-.077.229-.231.229-.385.077-.153.077-.307.077-.46 0-.154-.077-.384-.153-.461-.077-.154-.23-.23-.306-.307a983.51 983.51 0 0 1-.459-.23c-.153-.077-.383-.154-.536-.154-.153-.077-.382-.154-.535-.23a1.59 1.59 0 0 1-.46-.308c-.153-.153-.229-.307-.306-.46a1.85 1.85 0 0 1-.153-.691c0-.23.077-.461.153-.691.077-.23.23-.384.383-.538.153-.154.383-.307.612-.384.23-.077.536-.153.842-.153.382 0 .688.076.994.153.306.077.536.307.766.46l-.23.385Zm5.739-.998v.69h-2.066v5.683h-.842V32.02h-2.066v-.691h4.974Z"/><path fill="#099" d="M0 21.5C0 9.598 9.564 0 21.424 0S42.85 9.598 42.85 21.5 33.284 43 21.424 43C9.564 43 0 33.402 0 21.5Z"/><path fill="#fff" d="M42.773 23.42h-7.958c-.689 0-1.454-.615-1.607-1.229L29.535 7.295c-.23-.999-.688-1.536-1.377-1.536-.689 0-1.148.537-1.377 1.612l-5.816 27.72-4.514-18.505c-.23-.998-.689-1.536-1.377-1.536-.689 0-1.148.537-1.377 1.536l-2.143 9.521v.077l-.077-.077-.612-.768c-.841-1.075-2.601-1.92-4.055-1.92H.077c.076.615.153 1.306.23 1.92h6.58c.841 0 2.066.614 2.525 1.229l.612.768c.535.69 1.3.998 1.99.844.688-.153 1.223-.767 1.376-1.612l1.76-7.679 4.591 18.66c.23.997.689 1.535 1.378 1.535.688 0 1.147-.538 1.377-1.613l5.815-27.72 3.06 12.9c.383 1.537 1.837 2.688 3.444 2.688h7.728c.077-.614.153-1.305.23-1.92Z"/></g><defs><clipPath id="a"><path fill="#fff" d="M0 0h159v43H0z"/></clipPath></defs></svg>